<svg width="18" height="32" xmlns="http://www.w3.org/2000/svg">
  <path d="M9 .8C4.66.73 1.081 4.242 1.001 8.651c.086 4.405 3.662 7.91 7.999 7.84 4.337.07 7.913-3.435 7.999-7.84C16.919 4.241 13.34.73 9 .8zm-.27 11.097c-1.734-.05-3.112-1.495-3.105-3.257A3.34 3.34 0 0 1 6.64 6.292 3.234 3.234 0 0 1 9 5.382c1.765.077 3.135 1.591 3.06 3.384-.075 1.792-1.565 3.184-3.33 3.108v.023zm3.51 10.96 4.556 4.389.079.08c.796.898.766 2.27-.067 3.131a2.38 2.38 0 0 1-3.376 0l-4.41-4.308-4.387 4.342a2.38 2.38 0 0 1-3.375 0l-.079-.08a2.312 2.312 0 0 1 .079-3.165l4.5-4.389a15.19 15.19 0 0 1-4.669-1.828l-.09-.058a2.308 2.308 0 0 1-.641-3.108 2.374 2.374 0 0 1 3.24-.72 10.356 10.356 0 0 0 10.789 0 2.373 2.373 0 0 1 3.217.686l.056.091a2.306 2.306 0 0 1-.787 3.074c-1.435.874-3 1.503-4.635 1.863z" fill="#FFF" fill-rule="evenodd"/>
</svg>