<svg width="26" height="21" xmlns="http://www.w3.org/2000/svg">
  <path d="M25.706 2.785a10.43 10.43 0 0 1-2.945.781 5.055 5.055 0 0 0 2.273-2.78A10.367 10.367 0 0 1 21.8 2.004 5.172 5.172 0 0 0 18.057.441a5.078 5.078 0 0 0-5.117 5.024c0 .381.045.761.133 1.133a14.664 14.664 0 0 1-10.625-5.25 4.937 4.937 0 0 0-.695 2.53 5 5 0 0 0 2.273 4.165 5.21 5.21 0 0 1-2.344-.625v.062A5.055 5.055 0 0 0 5.8 12.41a5.117 5.117 0 0 1-2.32.086 5.117 5.117 0 0 0 4.788 3.492 10.555 10.555 0 0 1-7.562 2.094 14.773 14.773 0 0 0 7.867 2.273c7.91.14 14.436-6.153 14.586-14.062V5.41a10.281 10.281 0 0 0 2.547-2.625" fill="#F6F5FA" fill-rule="nonzero"/>
</svg>