<svg width="30" height="17" xmlns="http://www.w3.org/2000/svg">
  <path d="M13.729 16.66h1.672a1.41 1.41 0 0 0 .766-.34c.156-.219.237-.483.233-.753 0 0 0-2.287 1.01-2.626 1.008-.339 2.344 2.212 3.735 3.191a2.62 2.62 0 0 0 1.869.574l3.736-.056s1.961-.122 1.027-1.695a12.69 12.69 0 0 0-2.802-3.275c-2.344-2.222-2.036-1.883.794-5.695 1.719-2.335 2.41-3.766 2.195-4.378-.215-.612-1.466-.433-1.466-.433h-4.213a.928.928 0 0 0-.542.094 1.2 1.2 0 0 0-.373.462 25.11 25.11 0 0 1-1.56 3.35c-1.868 3.248-2.625 3.418-2.933 3.22-.71-.47-.533-1.882-.533-2.89 0-3.144.467-4.452-.934-4.791a7.083 7.083 0 0 0-1.97-.198 8.929 8.929 0 0 0-3.494.367c-.476.236-.85.772-.626.8.48.044.926.274 1.243.64.292.604.436 1.269.42 1.94 0 0 .252 3.7-.58 4.16-.57.32-1.344-.329-3.016-3.275A27.615 27.615 0 0 1 5.93 1.899a1.272 1.272 0 0 0-.309-.47 1.72 1.72 0 0 0-.644-.264l-4.026.019s-.598 0-.822.282c-.224.282 0 .725 0 .725s3.138 7.474 6.688 11.24a9.534 9.534 0 0 0 6.95 3.228h-.038z" fill="#F6F5FA" fill-rule="evenodd"/>
</svg>