<svg width="155" height="30" xmlns="http://www.w3.org/2000/svg">
  <g class="logo__icon" fill="#FFF" fill-rule="evenodd">
    <path d="M29.14 9C26.937 9 25 10.906 25 13.003v3.993C25 19.093 26.937 21 29.14 21H30v4.062C30 28.087 28.369 30 25.345 30H5.291C2.267 30 0 28.087 0 25.062V21h1.496C3.699 21 5 19.093 5 16.996v-3.993C5 10.906 3.699 9 1.496 9H0V4.937C0 1.912 2.267 0 5.291 0h20.054C28.369 0 30 1.912 30 4.937V9h-.86ZM23 20.023v-7.047C23 9.123 20.203 6 16.358 6h-2.081C10.433 6 7 9.123 7 12.976v7.047C7 23.877 10.433 27 14.277 27h2.081C20.203 27 23 23.877 23 20.023Zm-1-6.889v6.732C22 23.254 19.333 26 16.043 26h-2.086C10.667 26 8 23.254 8 19.866v-6.732C8 9.746 10.667 7 13.957 7h2.086C19.333 7 22 9.746 22 13.134Zm-2 3.862v-3.992C20 10.906 18.128 9 15.924 9h-1.212C12.508 9 10 10.906 10 13.004v3.992C10 19.094 12.508 21 14.712 21h1.212C18.128 21 20 19.094 20 16.996ZM15.39 19s.49.025.49.51c0 .482-.49.49-.49.49h-.111c-2.078 0-4.28-1.343-4.28-3.479v-1.499s-.003-.549.497-.549c.502 0 .504.549.504.549v1.499C12 18.108 13.75 19 15.279 19h.112Z"/>
    <g class="logo__text">
      <path d="M47.035 20.262c1.246 0 2.23-.357 2.95-1.068.718-.713 1.077-1.703 1.077-2.971v-1.15l-2.04.085c-1.639.08-2.809.336-3.507.77-.699.432-1.048 1.107-1.048 2.023 0 .73.224 1.299.672 1.704.447.404 1.08.607 1.896.607Zm4.297.752-.27-1.848h-.086c-.586.752-1.189 1.283-1.808 1.596-.62.31-1.354.467-2.197.467-1.147 0-2.038-.295-2.676-.881-.637-.588-.955-1.4-.955-2.44 0-1.138.474-2.023 1.424-2.652.947-.631 2.32-.963 4.12-1l2.221-.064v-.774c0-1.11-.224-1.947-.675-2.513-.452-.565-1.178-.848-2.182-.848-1.08 0-2.2.3-3.36.902l-.4-.924c1.283-.601 2.551-.902 3.803-.902 1.283 0 2.24.332 2.875.998.633.666.95 1.705.95 3.115v7.768h-.784ZM58.453 21.014 53.941 9.336h1.096l3.02 7.94c.4 1.015.701 1.904.902 2.664h.064c.293-.975.594-1.87.903-2.686l3.017-7.918h1.096l-4.512 11.678h-1.074ZM65.995 21.014h1.064V9.336h-1.064v11.678Zm-.151-14.922c0-.688.226-1.031.677-1.031.221 0 .395.089.522.269.125.179.187.434.187.762 0 .322-.062.577-.187.763a.6.6 0 0 1-.522.28c-.451 0-.677-.348-.677-1.043ZM73.762 20.262c1.246 0 2.229-.357 2.949-1.068.719-.713 1.078-1.703 1.078-2.971v-1.15l-2.041.085c-1.638.08-2.808.336-3.506.77-.7.432-1.048 1.107-1.048 2.023 0 .73.224 1.299.672 1.704.447.404 1.08.607 1.896.607Zm4.297.752-.27-1.848h-.086c-.586.752-1.19 1.283-1.808 1.596-.621.31-1.354.467-2.197.467-1.147 0-2.038-.295-2.676-.881-.637-.588-.955-1.4-.955-2.44 0-1.138.474-2.023 1.424-2.652.947-.631 2.32-.963 4.119-1l2.222-.064v-.774c0-1.11-.224-1.947-.675-2.513-.452-.565-1.178-.848-2.182-.848-1.08 0-2.201.3-3.361.902l-.4-.924c1.284-.601 2.552-.902 3.804-.902 1.283 0 2.24.332 2.875.998.633.666.949 1.705.949 3.115v7.768h-.783ZM89.863 17.973c0 1.047-.396 1.85-1.19 2.412-.796.563-1.925.844-3.386.844-1.56 0-2.799-.24-3.717-.721V19.36a8.226 8.226 0 0 0 3.717.88c1.154 0 2.03-.191 2.627-.574.597-.384.896-.894.896-1.531 0-.588-.238-1.082-.715-1.482-.474-.403-1.257-.795-2.345-1.182-1.168-.424-1.989-.787-2.46-1.09-.474-.304-.829-.648-1.07-1.031-.24-.385-.359-.852-.359-1.402 0-.875.367-1.565 1.102-2.075.732-.507 1.76-.761 3.076-.761 1.261 0 2.457.236 3.588.709l-.397.966c-1.146-.472-2.209-.71-3.19-.71-.952 0-1.708.158-2.267.474-.558.315-.838.752-.838 1.31 0 .608.217 1.096.651 1.462.431.365 1.28.773 2.54 1.224 1.051.379 1.82.72 2.298 1.026.48.304.84.65 1.08 1.037.24.386.36.842.36 1.363M95.664 20.262c1.246 0 2.23-.357 2.95-1.068.718-.713 1.08-1.703 1.08-2.971v-1.15l-2.042.085c-1.64.08-2.81.336-3.508.77-.699.432-1.046 1.107-1.046 2.023 0 .73.222 1.299.67 1.704.45.404 1.08.607 1.896.607Zm4.297.752-.268-1.848h-.086c-.588.752-1.19 1.283-1.81 1.596-.619.31-1.352.467-2.197.467-1.145 0-2.038-.295-2.674-.881-.639-.588-.957-1.4-.957-2.44 0-1.138.474-2.023 1.424-2.652.95-.631 2.322-.963 4.12-1l2.223-.064v-.774c0-1.11-.226-1.947-.677-2.513-.452-.565-1.178-.848-2.18-.848-1.082 0-2.203.3-3.363.902l-.397-.924c1.281-.601 2.55-.902 3.803-.902 1.281 0 2.238.332 2.873.998.633.666.951 1.705.951 3.115v7.768h-.785ZM104.528 21.014h1.062V4.299h-1.062zM113.904 10.057c-1.123 0-2.025.37-2.707 1.11-.68.744-1.078 1.812-1.19 3.208h7.217c0-1.353-.295-2.412-.88-3.173-.588-.764-1.4-1.145-2.44-1.145m.312 11.172c-1.697 0-3.02-.524-3.97-1.568-.947-1.047-1.422-2.51-1.422-4.395 0-1.861.457-3.354 1.375-4.473.916-1.121 2.152-1.681 3.705-1.681 1.375 0 2.461.478 3.256 1.439.795.959 1.191 2.262 1.191 3.91v.86h-8.41c.014 1.603.39 2.828 1.121 3.674.735.843 1.785 1.267 3.154 1.267.667 0 1.25-.047 1.756-.141.504-.091 1.145-.293 1.918-.601v.967c-.66.287-1.267.482-1.826.586-.558.103-1.176.156-1.848.156M128.815 17.973c0 1.047-.397 1.85-1.191 2.412-.795.563-1.924.844-3.385.844-1.562 0-2.8-.24-3.718-.721V19.36a8.226 8.226 0 0 0 3.718.88c1.153 0 2.028-.191 2.626-.574.598-.384.897-.894.897-1.531 0-.588-.239-1.082-.716-1.482-.474-.403-1.257-.795-2.345-1.182-1.167-.424-1.988-.787-2.46-1.09-.474-.304-.829-.648-1.07-1.031-.24-.385-.359-.852-.359-1.402 0-.875.368-1.565 1.1-2.075.734-.507 1.761-.761 3.078-.761 1.261 0 2.458.236 3.589.709l-.398.966c-1.146-.472-2.209-.71-3.19-.71-.951 0-1.707.158-2.266.474-.558.315-.838.752-.838 1.31 0 .608.216 1.096.648 1.462.434.365 1.282.773 2.541 1.224 1.053.379 1.82.72 2.3 1.026.48.304.838.65 1.08 1.037.24.386.359.842.359 1.363M131.607 20.176c0-.703.287-1.053.86-1.053.587 0 .88.35.88 1.053 0 .7-.293 1.053-.88 1.053-.573 0-.86-.352-.86-1.053M141.652 9.111c.494 0 1.023.05 1.59.15l-.205 1.02a6.258 6.258 0 0 0-1.514-.182c-.996 0-1.812.422-2.449 1.268-.639.844-.957 1.912-.957 3.201v6.445h-1.063V9.336h.903l.107 2.105h.074c.481-.859.993-1.463 1.537-1.809.543-.347 1.204-.52 1.977-.52M146.54 9.336v7.562c0 1.176.247 2.03.741 2.563.494.533 1.26.8 2.3.8 1.388 0 2.41-.351 3.065-1.052.655-.703.983-1.844.983-3.428V9.336h1.053v11.678h-.903l-.193-1.612h-.065c-.757 1.217-2.109 1.827-4.048 1.827-2.659 0-3.987-1.422-3.987-4.266V9.336h1.053Z"/>
    </g>
  </g>
</svg>